{"title":"Texas Chainsaw Massacre 3D (2013) - DMan79.x264.mp4","uid":8436428,"size":736275408,"categoryP":"video","categoryS":"movies","magnet":"?xt=urn:btih:d477f3dc8f8353d83ae7ba53a6b638a4d094074f&amp;dn=Texas+Chainsaw+Massacre+3D+%282013%29+-+DMan79.x264.mp4&amp;tr=udp%3A%2F%2Ftracker.openbittorrent.com%3A80&amp;tr=udp%3A%2F%2Fopen.demonii.com%3A1337&amp;tr=udp%3A%2F%2Ftracker.coppersurfer.tk%3A6969&amp;tr=udp%3A%2F%2Fexodus.desync.com%3A6969","seeders":1,"leechers":0,"uploader":"juanmanytacos","files":-1,"time":1367651300,"description":"screen:\n &lt;a href=&quot;\nhttp://bayimg.com/kamJMAAei&quot; rel=&quot;nofollow&quot; target=&quot;_NEW&quot;&gt;\nhttp://bayimg.com/kamJMAAei&lt;/a&gt;\n\ninfo:\n\nFormat                                   : MPEG-4\nFormat profile                           : Base Media\nCodec ID                                 : isom\nFile size                                : 702 MiB\nDuration                                 : 1h 31mn\nOverall bit rate mode                    : Variable\nOverall bit rate                         : 1 070 Kbps\nEncoded date                             : UTC 2013-05-01 15:34:49\nTagged date                              : UTC 2013-05-01 15:34:49\n\nVideo\nID                                       : 1\nFormat                                   : AVC\nFormat/Info                              : Advanced Video Codec\nFormat profile                           : &lt;a class=&quot;__cf_email__&quot; href=&quot;/cdn-cgi/l/email-protection&quot; data-cfemail=&quot;672f0e000f272b544956&quot;&gt;[email&amp;#160;protected]&lt;/a&gt;&lt;script data-cfhash='f9e31' type=&quot;text/javascript&quot;&gt;\n/* &lt;![CDATA[ */!function(){try{var t=&quot;currentScript&quot;in document?document.currentScript:function(){for(var t=document.getElementsByTagName(&quot;script&quot;),e=t.length;e--;)if(t[e].getAttribute(&quot;data-cfhash&quot;))return t[e]}();if(t&amp;&amp;t.previousSibling){var e,r,n,i,c=t.previousSibling,a=c.getAttribute(&quot;data-cfemail&quot;);if(a){for(e=&quot;&quot;,r=parseInt(a.substr(0,2),16),n=2;a.length-n;n+=2)i=parseInt(a.substr(n,2),16)^r,e+=String.fromCharCode(i);e=document.createTextNode(e),c.parentNode.replaceChild(e,c)}t.parentNode.removeChild(t);}}catch(u){}}()/* ]]&gt; */&lt;/script&gt;\nFormat settings, CABAC                   : Yes\nFormat settings, ReFrames                : 16 frames\nCodec ID                                 : avc1\nCodec ID/Info                            : Advanced Video Coding\nDuration                                 : 1h 31mn\nBit rate                                 : 980 Kbps\nMaximum bit rate                         : 5 573 Kbps\nWidth                                    : 720 pixels\nHeight                                   : 300 pixels\nDisplay aspect ratio                     : 2.40:1\nFrame rate mode                          : Constant\nFrame rate                               : 23.976 fps\nColor space                              : YUV\nChroma subsampling                       : 4:2:0\nBit depth                                : 8 bits\nScan type                                : Progressive\nBits/(Pixel*Frame)                       : 0.189\nStream size                              : 643 MiB (92%)\nWriting library                          : x264 core 130 r2273 b3065e6\nEncoding settings                        : cabac=1 / ref=16 / deblock=1:-1:-1 / analyse=0x3:0x113 / me=umh / subme=10 / psy=1 / psy_rd=1.00:0.00 / mixed_ref=1 / me_range=24 / chroma_me=1 / trellis=2 / 8x8dct=1 / cqm=0 / deadzone=21,11 / fast_pskip=1 / chroma_qp_offset=-4 / threads=12 / lookahead_threads=2 / sliced_threads=0 / nr=0 / decimate=1 / interlaced=0 / bluray_compat=0 / constrained_intra=0 / bframes=16 / b_pyramid=2 / b_adapt=2 / b_bias=0 / direct=1 / weightb=1 / open_gop=0 / weightp=2 / keyint=230 / keyint_min=23 / scenecut=40 / intra_refresh=0 / rc_lookahead=60 / rc=2pass / mbtree=1 / bitrate=980 / ratetol=1.0 / qcomp=0.60 / qpmin=3 / qpmax=69 / qpstep=4 / cplxblur=20.0 / qblur=0.5 / ip_ratio=1.40 / aq=1:1.00\nEncoded date                             : UTC 2013-05-01 15:34:49\nTagged date                              : UTC 2013-05-01 15:35:20\n\nAudio\nID                                       : 2\nFormat                                   : AAC\nFormat/Info                              : Advanced Audio Codec\nFormat profile                           : LC\nCodec ID                                 : 40\nDuration                                 : 1h 31mn\nBit rate mode                            : Variable\nBit rate                                 : 86.4 Kbps\nMaximum bit rate                         : 114 Kbps\nChannel(s)                               : 2 channels\nChannel positions                        : Front: L R\nSampling rate                            : 48.0 KHz\nCompression mode                         : Lossy\nStream size                              : 56.7 MiB (8%)\nEncoded date                             : UTC 2013-05-01 15:35:17\nTagged date                              : UTC 2013-05-01 15:35:20\n\n","torrent":{"xt":"urn:btih:d477f3dc8f8353d83ae7ba53a6b638a4d094074f","amp;dn":"Texas+Chainsaw+Massacre+3D+%282013%29+-+DMan79.x264.mp4","amp;tr":["udp%3A%2F%2Ftracker.openbittorrent.com%3A80","udp%3A%2F%2Fopen.demonii.com%3A1337","udp%3A%2F%2Ftracker.coppersurfer.tk%3A6969","udp%3A%2F%2Fexodus.desync.com%3A6969"],"infoHash":"d477f3dc8f8353d83ae7ba53a6b638a4d094074f","infoHashBuffer":{"type":"Buffer","data":[212,119,243,220,143,131,83,216,58,231,186,83,166,182,56,164,208,148,7,79]},"announce":[],"urlList":[]}}